<svg width="49" height="48" viewBox="0 0 49 48" fill="none" xmlns="http://www.w3.org/2000/svg">
<g clip-path="url(#clip0_1_402)">
<path d="M24.3745 -0.0244141C24.5081 -0.0244141 24.6382 0.0292034 24.7759 0.128906C24.9132 0.22834 25.0625 0.376311 25.2368 0.569336C25.4114 0.762642 25.6133 1.00462 25.855 1.29297C26.0968 1.58149 26.3795 1.91755 26.7163 2.30176L27.1021 2.7334C31.0832 7.08857 34.7901 8.28538 37.5259 8.61035C38.9403 8.77832 40.0937 8.7136 40.9028 8.72949C41.3044 8.73739 41.6272 8.76491 41.8501 8.85645C41.9629 8.90277 42.053 8.96729 42.1147 9.05566C42.1766 9.14425 42.2065 9.25308 42.2065 9.38379L42.1831 29.4531V29.4609L42.1802 29.4678C39.7269 37.6007 34.663 43.4603 26.4087 47.2168L25.6001 47.5742C25.5428 47.5988 25.4522 47.6399 25.3442 47.6885C25.2366 47.7369 25.1115 47.7924 24.9878 47.8447C24.8645 47.8969 24.7413 47.9469 24.6353 47.9834C24.5316 48.0191 24.4369 48.0449 24.3755 48.0449C24.3139 48.0449 24.2195 48.0181 24.1157 47.9824C24.0096 47.9459 23.8857 47.897 23.7622 47.8447C23.6385 47.7923 23.5135 47.737 23.4058 47.6885L23.1499 47.5732C14.4112 43.8324 9.10599 37.8661 6.56885 29.4678L6.56689 29.46V29.4531L6.54346 9.38379L6.54932 9.29004C6.56063 9.20003 6.58883 9.12217 6.63525 9.05566C6.697 8.96729 6.78712 8.90277 6.8999 8.85645C7.12282 8.76489 7.44563 8.73738 7.84717 8.72949C8.6563 8.71362 9.80974 8.77832 11.2241 8.61035C14.048 8.27494 17.9065 7.01003 22.0337 2.30176L22.4995 1.76172C22.6426 1.59342 22.774 1.43734 22.895 1.29297C23.1368 1.00455 23.3386 0.762665 23.5132 0.569336C23.6875 0.376284 23.8368 0.228341 23.9741 0.128906C24.1116 0.0293523 24.2411 -0.0243266 24.3745 -0.0244141ZM22.9546 3.10938C19.0939 7.5127 14.9948 9.69052 10.0913 9.9248L9.61475 9.94141L7.76807 9.98145V29.1992C10.2159 37.2873 15.1802 42.8292 23.6313 46.4473L24.3755 46.7656L25.1177 46.4482L25.8813 46.1113C33.6766 42.5723 38.5916 37.121 40.9009 29.4668L40.9819 29.1982V9.98145L39.1353 9.94141C34.1799 9.83206 30.0461 7.78821 26.1694 3.52832L25.7954 3.10938L24.3745 1.48828L22.9546 3.10938Z" fill="#CF9626" stroke="#CF9626" stroke-width="0.1"/>
<path d="M23.96 3.9043C24.203 3.68515 24.616 3.70107 24.835 3.95117L25.2344 4.39648C29.362 8.93101 33.783 11.0998 39.1064 11.2178L39.2275 11.2324C39.5015 11.2938 39.7061 11.5388 39.7061 11.8301L39.6816 29.083V29.0908L39.6797 29.0977C37.4821 36.3809 32.787 41.5752 25.3447 44.9531L24.6162 45.2744C24.5402 45.3072 24.4579 45.3232 24.376 45.3232H24.375C24.3341 45.3232 24.2931 45.3197 24.2529 45.3115L24.1348 45.2744C16.2693 41.9077 11.3395 36.6158 9.07129 29.0977L9.06934 29.0908V29.083L9.04492 11.8291L9.05664 11.708C9.11202 11.4328 9.35223 11.2242 9.64355 11.2178L10.1562 11.1992C15.4219 10.9486 19.8049 8.63811 23.9141 3.95117L23.96 3.9043ZM24.375 5.27051C20.2276 9.79942 15.6012 12.1459 10.2695 12.4189V28.8281C12.4146 35.8554 17.0287 40.8334 24.375 44.042C31.721 40.8338 36.3352 35.8568 38.4805 28.8311V12.4189C33.1485 12.1455 28.5224 9.79926 24.375 5.27051Z" fill="#CF9626" stroke="#CF9626" stroke-width="0.1"/>
<path d="M20.2485 13.9443C21.1322 13.9443 21.7896 14.1026 22.3003 14.3213C22.8105 14.5398 23.173 14.8175 23.4673 15.0537C23.6151 15.1723 23.744 15.2786 23.8667 15.3633C23.9891 15.4477 24.1019 15.5086 24.2163 15.5361C24.4394 15.5898 24.686 15.523 25.0415 15.2148L25.1958 15.0859C28.4782 12.4546 33.9583 14.5933 33.9585 19.3281C33.9585 21.0701 33.1383 22.6697 31.7456 23.6855C32.2733 27.1167 32.2619 31.3522 28.3823 34.6719L27.9937 34.9912C27.5157 35.3682 26.8357 34.8793 27.0376 34.3066L27.1538 33.9443C27.6745 32.1534 27.2553 30.7029 26.5776 29.6123C25.8671 28.4688 24.8721 27.7204 24.3765 27.3945C23.886 27.7193 22.9017 28.463 22.1919 29.5947C21.47 30.7459 21.0318 32.2991 21.686 34.2266H21.6851C21.7989 34.4895 21.757 34.7151 21.6353 34.875C21.5149 35.0329 21.3199 35.123 21.1362 35.123H21.0864V35.1182C21.0029 35.1113 20.92 35.0899 20.8442 35.0488L20.7573 34.9912C16.4905 31.6268 16.4596 27.2268 17.0044 23.6846C12.8227 20.6373 14.9201 13.9446 20.2485 13.9443ZM28.5024 15.1689C27.0597 15.1689 26.2423 15.8889 25.4917 16.3809C25.1179 16.6258 24.7558 16.8171 24.3423 16.8184C23.9791 16.8194 23.584 16.6742 23.1128 16.3096L22.9067 16.1406C21.6875 15.0823 19.9645 14.9209 18.5454 15.5049C17.1282 16.0882 16.0171 17.4134 16.0171 19.3281C16.0171 20.7825 16.7557 22.109 17.9937 22.877L18.0679 22.9316C18.2067 23.0499 18.2864 23.2239 18.2837 23.4062L18.2749 23.498C17.583 27.6292 18.1487 30.5002 20.1528 32.7549C20.0383 30.7597 20.9323 29.1028 21.9292 27.9395C22.4396 27.3438 22.9779 26.8766 23.4224 26.5576C23.6446 26.3981 23.8447 26.2755 24.0063 26.1924C24.0871 26.1508 24.1592 26.1184 24.2202 26.0967C24.2501 26.0861 24.2782 26.0771 24.3042 26.0713L24.3755 26.0625L24.4468 26.0713C24.4728 26.0772 24.5009 26.086 24.5308 26.0967C24.5917 26.1184 24.664 26.1499 24.7446 26.1914C24.9062 26.2745 25.1054 26.3982 25.3276 26.5576C25.7721 26.8766 26.3102 27.3437 26.8208 27.9395C27.8178 29.1027 28.7116 30.7591 28.5972 32.7549C30.4739 30.6435 31.0901 27.9922 30.5923 24.2705L30.4761 23.499C30.4347 23.2539 30.5461 23.008 30.7573 22.877L30.9175 22.7734C34.2138 20.5355 32.813 15.1692 28.5024 15.1689Z" fill="#CF9626" stroke="#CF9626" stroke-width="0.1"/>
<path d="M22.2646 17.5273C22.3872 17.5092 22.506 17.5456 22.6221 17.6084C22.7376 17.6709 22.8561 17.7624 22.9795 17.8604C23.1042 17.9594 23.2352 18.0666 23.3789 18.1641C23.6653 18.3584 23.9979 18.5119 24.4141 18.4844C24.8311 18.4567 25.3414 18.2464 25.9805 17.6924L26.0957 17.6104C26.2128 17.5444 26.3348 17.5243 26.4502 17.54C26.6026 17.5609 26.74 17.6438 26.8389 17.7578C26.9378 17.8719 27.0009 18.0199 27 18.1738C26.9992 18.2902 26.9617 18.4081 26.8799 18.5146L26.7822 18.6172C25.9622 19.3279 25.1702 19.7312 24.376 19.7314V19.7324H24.375V19.7314C24.1645 19.7313 23.8587 19.6652 23.5332 19.5537C23.2065 19.4417 22.8549 19.2834 22.5518 19.0977C22.2498 18.9126 21.9907 18.697 21.8545 18.4688C21.786 18.354 21.7468 18.2338 21.752 18.1113C21.7573 17.9881 21.8073 17.8671 21.9062 17.7529L21.9941 17.6631C22.0827 17.5846 22.1723 17.5411 22.2646 17.5273Z" fill="#CF9626" stroke="#CF9626" stroke-width="0.1"/>
</g>
<defs>
<clipPath id="clip0_1_402">
<rect width="48" height="48" fill="white" transform="translate(0.375)"/>
</clipPath>
</defs>
</svg>
