<svg width="49" height="48" viewBox="0 0 49 48" fill="none" xmlns="http://www.w3.org/2000/svg">
<g clip-path="url(#clip0_1_348)">
<path d="M40.0848 4.91746C39.9057 4.57286 39.4809 4.43846 39.1366 4.61754C38.792 4.79661 38.6576 5.22105 38.8367 5.56565C39.7541 7.33151 39.9467 9.36105 39.3791 11.28C39.1528 12.0468 37.1646 18.7807 37.0778 19.115C37.0606 19.1817 37.0009 19.2286 36.9332 19.2286H20.3402C19.9517 19.2286 19.6371 19.5431 19.6371 19.9317C19.6371 20.3199 19.9517 20.6348 20.3402 20.6348H34.7996L34.4089 22.7834C34.3957 22.8544 34.3342 22.9057 34.262 22.9057H14.0026C13.9304 22.9057 13.8689 22.8544 13.8561 22.7834L13.465 20.6348H17.2783C17.6665 20.6348 17.9815 20.3199 17.9815 19.9317C17.9815 19.5431 17.6665 19.2286 17.2783 19.2286H11.3315C11.2637 19.2286 11.204 19.1821 11.1868 19.1154C11.185 19.1081 11.1828 19.1008 11.1809 19.0934L8.88555 11.28C8.19085 8.93038 8.63323 6.45737 10.0995 4.49449C11.5658 2.53197 13.8118 1.40624 16.2617 1.40624C16.9909 1.40624 17.7119 1.50805 18.4052 1.70873C22.1519 2.79381 26.1131 2.79381 29.8595 1.70873C30.5527 1.50805 31.2738 1.40624 32.0029 1.40624C33.8878 1.40624 35.6965 2.09032 37.0965 3.33251C37.3869 3.59032 37.8315 3.56395 38.0893 3.27355C38.3471 2.98278 38.3204 2.53856 38.03 2.28075C36.3725 0.810055 34.232 0 32.0029 0C31.1416 0 30.2887 0.120483 29.4684 0.357787C25.9776 1.36889 22.287 1.36889 18.7963 0.357787C17.976 0.120483 17.1231 0 16.2617 0C13.3639 0 10.7071 1.33154 8.9727 3.65294C7.23834 5.97434 6.71502 8.89962 7.5368 11.6773L9.8289 19.4805C10.0109 20.1609 10.6272 20.6348 11.3315 20.6348H12.0357L12.4726 23.0349C12.607 23.7751 13.2508 24.3119 14.0026 24.3119H17.0667L17.5632 28.5892L17.0678 28.7218C16.5551 28.8591 16.1266 29.188 15.8615 29.6476C15.596 30.1072 15.5257 30.6426 15.663 31.1549C15.9007 32.0415 16.7052 32.6274 17.5823 32.6274C17.7291 32.6274 17.8782 32.6099 18.0269 32.5758L18.2796 34.7514L17.6094 34.9313C16.5514 35.2147 15.9212 36.306 16.2046 37.3644C16.4423 38.2506 17.2468 38.8369 18.1239 38.8369C18.2938 38.8369 18.466 38.8149 18.6377 38.7688L18.7428 38.7406L18.9955 40.914L18.4216 41.0678C17.9089 41.2052 17.4808 41.534 17.2153 41.9936C16.9502 42.4532 16.8799 42.9882 17.0172 43.5009C17.1542 44.0133 17.483 44.4417 17.9426 44.7072C18.2488 44.8837 18.5883 44.9742 18.9325 44.9742C19.105 44.9742 19.2789 44.9515 19.45 44.9057L19.4591 44.9031L19.6506 46.5515C19.7462 47.3773 20.4457 48.0002 21.2773 48.0002H26.9876C27.8189 48.0002 28.5184 47.3773 28.6144 46.5515L29.1062 42.3184L29.8433 42.1207C30.901 41.8372 31.5312 40.7459 31.2478 39.688C31.0332 38.8874 30.356 38.3326 29.5808 38.2323L29.8683 35.7596L30.6556 35.5487C31.7132 35.2656 32.3435 34.1739 32.06 33.116C31.841 32.2986 31.1405 31.7372 30.3451 31.6544L30.6303 29.2012L31.1969 29.0496C32.2552 28.7658 32.8851 27.6745 32.6016 26.6165C32.4021 25.872 31.8026 25.3402 31.0962 25.1886L31.1983 24.3123H34.262C35.0142 24.3123 35.6577 23.7751 35.7924 23.0353L36.2293 20.6348H36.9332C37.6418 20.6348 38.261 20.1551 38.439 19.4684C38.5009 19.2297 39.8416 14.6791 40.7278 11.6788C41.3987 9.40939 41.1706 7.00815 40.0848 4.91746ZM27.2173 46.3889C27.2037 46.5057 27.1048 46.5936 26.9876 46.5936H21.277C21.1598 46.5936 21.0609 46.5057 21.0474 46.3889L20.832 44.5351L27.645 42.7095L27.2173 46.3889ZM29.8891 40.0516C29.9723 40.3607 29.7881 40.6793 29.479 40.7624L19.0859 43.5471C18.9362 43.5874 18.7798 43.5665 18.6458 43.4892C18.5114 43.4116 18.4154 43.2867 18.3755 43.1369C18.3352 42.9871 18.3557 42.8308 18.4334 42.6967C18.511 42.5623 18.6359 42.4664 18.7857 42.4261L29.1787 39.6414C29.2289 39.6279 29.279 39.6217 29.3288 39.6217C29.5848 39.6213 29.8199 39.7927 29.8891 40.0516ZM28.1379 38.4644L20.3684 40.5463L20.1161 38.3725L28.4067 36.1511L28.1379 38.4644ZM30.7017 33.4796C30.7845 33.7887 30.6003 34.1077 30.2912 34.1904L18.2737 37.4105C17.9646 37.4936 17.6456 37.3094 17.5629 37.0003C17.4801 36.6913 17.6643 36.3727 17.9734 36.2895L29.9909 33.0695C30.0411 33.0559 30.0916 33.0497 30.1411 33.0497C30.3974 33.0497 30.6325 33.2207 30.7017 33.4796ZM31.2434 26.9801C31.3261 27.2892 31.1419 27.6082 30.8328 27.6909L26.5365 28.8423C26.1615 28.9426 25.9388 29.3283 26.0395 29.7033C26.1399 30.0782 26.5251 30.3009 26.9005 30.2006L29.1688 29.5927L28.9 31.906L19.6525 34.3838L19.4002 32.2103L23.9404 30.9938C24.3158 30.8931 24.5381 30.5074 24.4377 30.1324C24.3374 29.7575 23.9518 29.5348 23.5764 29.6351L17.7321 31.2014C17.423 31.2842 17.1044 31.1 17.0213 30.7909C16.9813 30.6415 17.0018 30.4851 17.0795 30.3507C17.1568 30.2167 17.282 30.1204 17.4318 30.0804L30.5326 26.57C30.8416 26.4868 31.1606 26.6714 31.2434 26.9801ZM29.6621 25.3472L18.9365 28.2212L18.4824 24.3119H29.7826L29.6621 25.3472Z" fill="#CF9626"/>
<path d="M29.4684 4.10775C25.9777 5.11885 22.287 5.11885 18.7963 4.10775C18.4235 4.00008 18.0331 4.21468 17.9254 4.58785C17.8174 4.96065 18.032 5.35066 18.4052 5.4587C20.2783 6.00142 22.2053 6.27278 24.1323 6.27278C26.0593 6.27278 27.9863 6.00142 29.8595 5.4587C30.2326 5.35066 30.4476 4.96065 30.3396 4.58785C30.2316 4.21468 29.8412 4.00008 29.4684 4.10775Z" fill="#CF9626"/>
</g>
<defs>
<clipPath id="clip0_1_348">
<rect width="48" height="48" fill="white" transform="translate(0.125)"/>
</clipPath>
</defs>
</svg>
