<svg width="49" height="48" viewBox="0 0 49 48" fill="none" xmlns="http://www.w3.org/2000/svg">
<g clip-path="url(#clip0_1_366)">
<path d="M6.19434 19.1796C8.39296 23.3768 11.7505 25.9832 14.97 27.5992C20.1151 30.1816 25.6526 30.5076 30.8854 28.5802L30.9805 28.5454" stroke="#CF9626" stroke-width="1.5" stroke-miterlimit="10" stroke-linecap="round" stroke-linejoin="round"/>
<path d="M33.9346 27.1816C36.8949 25.5456 39.8928 23.0367 41.9118 19.196" stroke="#CF9626" stroke-width="1.5" stroke-miterlimit="10" stroke-linecap="round" stroke-linejoin="round"/>
<path d="M0.818359 18.5166C1.6218 19.4822 2.43114 20.4408 3.24236 21.3972C7.3128 26.1967 11.2719 30.9178 16.5766 33.7796C21.6715 36.5283 26.5658 36.5353 31.6739 33.7795C36.9786 30.9178 40.9376 26.1967 45.0081 21.3972C45.8193 20.4408 46.6286 19.4822 47.4321 18.5166" stroke="#CF9626" stroke-width="1.5" stroke-miterlimit="10" stroke-linecap="round" stroke-linejoin="round"/>
<path d="M19.5425 20.1345V23.2529C19.5425 23.7475 19.9434 24.1484 20.438 24.1484H23.2101C23.7046 24.1484 24.1056 23.7475 24.1056 23.2529V20.2263" stroke="#CF9626" stroke-width="1.5" stroke-miterlimit="10" stroke-linecap="round" stroke-linejoin="round"/>
<path d="M24.1128 20.2263V23.2529C24.1128 23.7476 24.5138 24.1484 25.0083 24.1484H27.7805C28.275 24.1484 28.6759 23.7476 28.6759 23.2529V20.1345" stroke="#CF9626" stroke-width="1.5" stroke-miterlimit="10" stroke-linecap="round" stroke-linejoin="round"/>
<path d="M28.708 20.1345V23.3765C28.708 23.8028 29.0537 24.1484 29.4799 24.1484H31.8694C32.2957 24.1484 32.6413 23.8028 32.6413 23.3765V19.9528" stroke="#CF9626" stroke-width="1.5" stroke-miterlimit="10" stroke-linecap="round" stroke-linejoin="round"/>
<path d="M32.6411 19.954V22.0646C32.6411 22.4679 32.9681 22.7949 33.3714 22.7949H35.6322C36.0356 22.7949 36.3626 22.4679 36.3626 22.0646V19.7034" stroke="#CF9626" stroke-width="1.5" stroke-miterlimit="10" stroke-linecap="round" stroke-linejoin="round"/>
<path d="M19.5427 20.1345V23.3765C19.5427 23.8028 19.197 24.1484 18.7707 24.1484H16.3812C15.9549 24.1484 15.6094 23.8028 15.6094 23.3765V19.9528" stroke="#CF9626" stroke-width="1.5" stroke-miterlimit="10" stroke-linecap="round" stroke-linejoin="round"/>
<path d="M15.6092 19.9541V22.0646C15.6092 22.4679 15.2822 22.7949 14.8789 22.7949H12.6181C12.2147 22.7949 11.8877 22.4679 11.8877 22.0646V19.7034" stroke="#CF9626" stroke-width="1.5" stroke-miterlimit="10" stroke-linecap="round" stroke-linejoin="round"/>
<path d="M15.5677 11.133C18.485 10.0675 21.4653 9.87528 24.1253 12.1902C29.3198 7.66962 35.736 12.71 40.5185 15.144C42.8033 16.3069 45.1276 17.3811 47.4225 18.5214C47.4225 18.5214 36.3646 20.1699 24.1351 20.2265V20.2267C24.1319 20.2267 24.1286 20.2266 24.1253 20.2266C24.1221 20.2266 24.1188 20.2267 24.1156 20.2267V20.2265C11.886 20.1699 0.828247 18.5214 0.828247 18.5214C3.12315 17.3811 5.44731 16.3069 7.73209 15.144C9.19281 14.4006 10.8059 13.4142 12.49 12.5311L12.6324 12.4568" stroke="#CF9626" stroke-width="1.5" stroke-miterlimit="10" stroke-linecap="round" stroke-linejoin="round"/>
<path d="M39.4854 34.0441C39.1813 34.689 38.3005 36.2639 36.7484 36.7996C36.6281 36.8412 36.6281 37.0123 36.7484 37.0538C38.3005 37.5895 39.1813 39.1644 39.4854 39.8093C39.5341 39.9125 39.681 39.9125 39.7297 39.8093C40.0338 39.1644 40.9146 37.5895 42.4667 37.0538C42.587 37.0123 42.587 36.8412 42.4667 36.7996C40.9146 36.2639 40.0338 34.689 39.7297 34.0441C39.681 33.9409 39.5341 33.9409 39.4854 34.0441Z" stroke="#CF9626" stroke-width="1.5" stroke-miterlimit="10" stroke-linecap="round" stroke-linejoin="round"/>
<path d="M9.58745 1.76723C9.16858 2.65552 7.95545 4.8247 5.81767 5.56252C5.65192 5.6197 5.65192 5.85539 5.81767 5.91258C7.95545 6.65039 9.16858 8.81967 9.58745 9.70786C9.65448 9.84998 9.8568 9.84998 9.92383 9.70786C10.3427 8.81967 11.5558 6.65039 13.6936 5.91258C13.8593 5.85539 13.8593 5.6197 13.6936 5.56252C11.5558 4.8247 10.3427 2.65552 9.92383 1.76723C9.8568 1.62511 9.65448 1.62511 9.58745 1.76723Z" stroke="#CF9626" stroke-width="1.5" stroke-miterlimit="10" stroke-linecap="round" stroke-linejoin="round"/>
<path d="M32.5661 38.2908C32.1472 39.1791 30.9341 41.3483 28.7963 42.0861C28.6306 42.1433 28.6306 42.379 28.7963 42.4361C30.9341 43.174 32.1472 45.3432 32.5661 46.2314C32.633 46.3735 32.8354 46.3735 32.9025 46.2314C33.3213 45.3432 34.5345 43.174 36.6722 42.4361C36.8379 42.379 36.8379 42.1433 36.6722 42.0861C34.5345 41.3483 33.3213 39.1791 32.9025 38.2908C32.8354 38.1487 32.633 38.1487 32.5661 38.2908Z" stroke="#CF9626" stroke-width="1.5" stroke-miterlimit="10" stroke-linecap="round" stroke-linejoin="round"/>
</g>
<defs>
<clipPath id="clip0_1_366">
<rect width="48" height="48" fill="white" transform="translate(0.125)"/>
</clipPath>
</defs>
</svg>
