<svg width="49" height="48" viewBox="0 0 49 48" fill="none" xmlns="http://www.w3.org/2000/svg">
<g clip-path="url(#clip0_1_357)">
<path d="M20.6713 14.1068C21.9883 15.4237 22.877 17.0857 23.243 18.9127C23.3975 19.6875 24.0845 20.25 24.875 20.25C25.6655 20.25 26.3525 19.6875 26.5077 18.9113L26.963 16.6327C26.9938 16.479 27.2562 16.4798 27.287 16.632L27.7423 18.912C27.8975 19.6875 28.5845 20.25 29.375 20.25C30.1655 20.25 30.8525 19.6875 31.0077 18.912C31.373 17.085 32.2625 15.4237 33.5795 14.106L33.9125 13.773C34.856 12.8303 35.375 11.5763 35.375 10.242C35.375 7.4895 33.1355 5.25 30.3822 5.25H29.8145L29.1553 5.90925C28.6205 6.44325 27.881 6.75 27.125 6.75C26.369 6.75 25.6295 6.44325 25.0947 5.90925L24.4355 5.25H23.8677C21.1145 5.25 18.875 7.4895 18.875 10.2427C18.875 11.577 19.394 12.831 20.3375 13.773L20.6713 14.1068ZM23.8145 6.75L24.0342 6.969C24.848 7.7835 25.9745 8.25 27.125 8.25C28.2755 8.25 29.402 7.7835 30.2157 6.96975L30.4355 6.75C32.3368 6.77925 33.875 8.33475 33.875 10.2427C33.875 11.1765 33.512 12.0533 32.852 12.7125L32.519 13.0455C30.992 14.5732 29.9607 16.4993 29.537 18.6165C29.5062 18.7703 29.2438 18.7695 29.213 18.6173L28.7577 16.3373C28.6025 15.5625 27.9155 15 27.125 15C26.3345 15 25.6475 15.5625 25.4923 16.3387L25.037 18.6173C25.0062 18.771 24.7438 18.771 24.713 18.6173C24.29 16.5 23.2588 14.5733 21.731 13.0463L21.398 12.7117C20.738 12.0525 20.375 11.1757 20.375 10.2427C20.375 8.33475 21.9133 6.77925 23.8145 6.75Z" fill="#CF9626"/>
<path d="M46.6452 28.914C46.1847 28.6432 45.659 28.5 45.1257 28.5C44.0682 28.5 43.0775 29.0662 42.539 29.979L41.1838 32.283C40.8192 30.8355 39.95 29.589 38.699 28.7557C38.5235 28.6388 38.3375 28.5435 38.1522 28.4468C39.6343 27.5183 40.625 25.875 40.625 24C40.625 21.339 38.633 19.1392 36.0628 18.8002C37.5568 16.8533 38.375 14.499 38.375 12C38.375 5.79675 33.3283 0.75 27.125 0.75C20.9217 0.75 15.875 5.79675 15.875 12C15.875 12.5798 15.9245 13.1588 16.0145 13.7333C15.4925 13.5848 14.9443 13.5 14.375 13.5C11.0668 13.5 8.375 16.1918 8.375 19.5C8.375 21.6248 9.488 23.49 11.1583 24.5565C7.36025 25.89 4.625 29.502 4.625 33.75V39.75C4.625 40.299 4.784 40.8068 5.042 41.25H4.625C2.9705 41.25 1.625 42.5955 1.625 44.25C1.625 45.9045 2.9705 47.25 4.625 47.25H33.7648C37.205 47.25 40.4247 45.408 42.1693 42.4432L47.7125 33.0188C48.5488 31.5923 48.0703 29.7502 46.6452 28.914ZM39.7858 32.868C39.8968 33.4207 39.9042 33.9795 39.8037 34.5585L39.7917 34.6493L36.9965 39.4012C36.3267 40.542 35.087 41.25 33.7648 41.25H27.125C26.5047 41.25 26 40.7453 26 40.125C26 39.5047 26.5047 39 27.125 39H32.8137C33.7302 39 34.592 38.5117 35.0645 37.7257L36.7677 34.8862L35.4815 34.1145L33.7782 36.954C33.5765 37.2907 33.206 37.5 32.8137 37.5H27.4655L31.6295 31.2533C32.4627 29.9993 33.8623 29.25 35.3727 29.25C36.263 29.25 37.1255 29.511 37.8673 30.0052C38.8678 30.6712 39.5495 31.6875 39.7858 32.868ZM20.2145 20.8582C22.1833 22.4025 24.584 23.25 27.125 23.25C28.2005 23.25 29.252 23.0798 30.275 22.7775C30.1805 23.1705 30.125 23.5785 30.125 24C30.125 25.8682 31.109 27.5077 32.5835 28.4385C31.7083 28.8982 30.9462 29.5718 30.3807 30.4222L26.1628 36.75H25.8523L24.125 35.5988V33.75C24.125 29.502 21.3897 25.89 17.5917 24.5565C18.8945 23.7248 19.8538 22.407 20.2145 20.8582ZM23.1478 36.75H10.6242L12.938 35.0153C14.0262 34.1992 15.374 33.75 16.7338 33.75C17.9862 33.75 19.199 34.1175 20.2415 34.812L23.1478 36.75ZM39.125 24C39.125 26.0677 37.4427 27.75 35.375 27.75C33.3073 27.75 31.625 26.0677 31.625 24C31.625 21.9323 33.3073 20.25 35.375 20.25C37.4427 20.25 39.125 21.9323 39.125 24ZM17.375 12C17.375 6.624 21.749 2.25 27.125 2.25C32.501 2.25 36.875 6.624 36.875 12C36.875 14.6423 35.8273 17.103 33.9328 18.9562C32.825 19.2735 31.8688 19.9463 31.1908 20.8425C29.8978 21.4403 28.532 21.75 27.125 21.75C24.572 21.75 22.1803 20.7668 20.3495 18.9907C20.192 17.13 19.1855 15.5077 17.7155 14.5185C17.4935 13.692 17.375 12.8468 17.375 12ZM9.875 19.5C9.875 17.0182 11.8932 15 14.375 15C16.8568 15 18.875 17.0182 18.875 19.5C18.875 21.9818 16.8568 24 14.375 24C11.8932 24 9.875 21.9818 9.875 19.5ZM14.375 25.5C18.9237 25.5 22.625 29.2013 22.625 33.75V34.599L21.0732 33.564C19.784 32.7045 18.2833 32.25 16.7338 32.25C15.0522 32.25 13.3843 32.8057 12.0387 33.8145L8.12525 36.75H7.625C7.076 36.75 6.56825 36.909 6.125 37.167V33.75C6.125 29.2013 9.82625 25.5 14.375 25.5ZM6.125 39.75C6.125 38.9227 6.79775 38.25 7.625 38.25H25.2935C24.8052 38.727 24.5 39.39 24.5 40.125C24.5 40.5293 24.5998 40.908 24.7633 41.25H7.62125C6.79625 41.2477 6.125 40.5757 6.125 39.75ZM46.4187 32.259L40.8755 41.6828C39.3995 44.1915 36.6748 45.75 33.7648 45.75H4.625C3.79775 45.75 3.125 45.0773 3.125 44.25C3.125 43.4227 3.79775 42.75 4.625 42.75H7.62125H7.625H24.125H27.125H33.7648H33.8397V42.7448C35.6637 42.7185 37.364 41.736 38.291 40.1618L43.8327 30.7402C44.2363 30.0532 45.1955 29.8027 45.887 30.2078C46.598 30.6255 46.8365 31.5465 46.4187 32.259Z" fill="#CF9626"/>
</g>
<defs>
<clipPath id="clip0_1_357">
<rect width="48" height="48" fill="white" transform="translate(0.875)"/>
</clipPath>
</defs>
</svg>
