<svg width="184" height="66" viewBox="0 0 184 66" fill="none" xmlns="http://www.w3.org/2000/svg">
<rect x="-2.66667" y="-4" width="11.6667" height="11.6667" fill="#C9A96A" fill-opacity="0.3"/>
<rect x="26.5" y="-4" width="11.6667" height="11.6667" fill="#C9A96A" fill-opacity="0.3"/>
<rect x="55.6667" y="-4" width="11.6667" height="11.6667" fill="#C9A96A" fill-opacity="0.3"/>
<rect x="84.8333" y="-4" width="11.6667" height="11.6667" fill="#C9A96A" fill-opacity="0.3"/>
<rect x="114" y="-4" width="11.6667" height="11.6667" fill="#C9A96A" fill-opacity="0.3"/>
<rect x="143.167" y="-4" width="11.6667" height="11.6667" fill="#C9A96A" fill-opacity="0.3"/>
<rect x="172.333" y="-4" width="11.6667" height="11.6667" fill="#C9A96A" fill-opacity="0.3"/>
<rect x="-2.66667" y="25.1667" width="11.6667" height="11.6667" fill="#C9A96A" fill-opacity="0.3"/>
<rect x="26.5" y="25.1667" width="11.6667" height="11.6667" fill="#C9A96A" fill-opacity="0.3"/>
<rect x="55.6667" y="25.1667" width="11.6667" height="11.6667" fill="#C9A96A" fill-opacity="0.3"/>
<rect x="84.8333" y="25.1667" width="11.6667" height="11.6667" fill="#C9A96A" fill-opacity="0.3"/>
<rect x="114" y="25.1667" width="11.6667" height="11.6667" fill="#C9A96A" fill-opacity="0.3"/>
<rect x="143.167" y="25.1667" width="11.6667" height="11.6667" fill="#C9A96A" fill-opacity="0.3"/>
<rect x="172.333" y="25.1667" width="11.6667" height="11.6667" fill="#C9A96A" fill-opacity="0.3"/>
<rect x="-2.66667" y="54.3333" width="11.6667" height="11.6667" fill="#C9A96A" fill-opacity="0.3"/>
<rect x="26.5" y="54.3333" width="11.6667" height="11.6667" fill="#C9A96A" fill-opacity="0.3"/>
<rect x="55.6667" y="54.3333" width="11.6667" height="11.6667" fill="#C9A96A" fill-opacity="0.3"/>
<rect x="84.8333" y="54.3333" width="11.6667" height="11.6667" fill="#C9A96A" fill-opacity="0.3"/>
<rect x="114" y="54.3333" width="11.6667" height="11.6667" fill="#C9A96A" fill-opacity="0.3"/>
<rect x="143.167" y="54.3333" width="11.6667" height="11.6667" fill="#C9A96A" fill-opacity="0.3"/>
<rect x="172.333" y="54.3333" width="11.6667" height="11.6667" fill="#C9A96A" fill-opacity="0.3"/>
</svg>
