<svg width="57" height="16" viewBox="0 0 57 16" fill="none" xmlns="http://www.w3.org/2000/svg">
<rect x="0.5" width="2.66667" height="2.66667" fill="#C9A96A"/>
<rect x="7.16663" width="2.66667" height="2.66667" fill="#C9A96A"/>
<rect x="13.8333" width="2.66667" height="2.66667" fill="#C9A96A"/>
<rect x="20.5" width="2.66667" height="2.66667" fill="#C9A96A"/>
<rect x="27.1667" width="2.66667" height="2.66667" fill="#C9A96A"/>
<rect x="33.8333" width="2.66667" height="2.66667" fill="#C9A96A"/>
<rect x="40.5" width="2.66667" height="2.66667" fill="#C9A96A"/>
<rect x="47.1667" width="2.66667" height="2.66667" fill="#C9A96A"/>
<rect x="53.8333" width="2.66667" height="2.66667" fill="#C9A96A"/>
<rect x="0.5" y="6.66663" width="2.66667" height="2.66667" fill="#C9A96A"/>
<rect x="7.16663" y="6.66663" width="2.66667" height="2.66667" fill="#C9A96A"/>
<rect x="13.8333" y="6.66663" width="2.66667" height="2.66667" fill="#C9A96A"/>
<rect x="20.5" y="6.66663" width="2.66667" height="2.66667" fill="#C9A96A"/>
<rect x="27.1667" y="6.66663" width="2.66667" height="2.66667" fill="#C9A96A"/>
<rect x="33.8333" y="6.66663" width="2.66667" height="2.66667" fill="#C9A96A"/>
<rect x="40.5" y="6.66663" width="2.66667" height="2.66667" fill="#C9A96A"/>
<rect x="47.1667" y="6.66663" width="2.66667" height="2.66667" fill="#C9A96A"/>
<rect x="53.8333" y="6.66663" width="2.66667" height="2.66667" fill="#C9A96A"/>
<rect x="0.5" y="13.3334" width="2.66667" height="2.66667" fill="#C9A96A"/>
<rect x="7.16663" y="13.3334" width="2.66667" height="2.66667" fill="#C9A96A"/>
<rect x="13.8333" y="13.3334" width="2.66667" height="2.66667" fill="#C9A96A"/>
<rect x="20.5" y="13.3334" width="2.66667" height="2.66667" fill="#C9A96A"/>
<rect x="27.1667" y="13.3334" width="2.66667" height="2.66667" fill="#C9A96A"/>
<rect x="33.8333" y="13.3334" width="2.66667" height="2.66667" fill="#C9A96A"/>
<rect x="40.5" y="13.3334" width="2.66667" height="2.66667" fill="#C9A96A"/>
<rect x="47.1667" y="13.3334" width="2.66667" height="2.66667" fill="#C9A96A"/>
<rect x="53.8333" y="13.3334" width="2.66667" height="2.66667" fill="#C9A96A"/>
</svg>
